<svg xmlns="http://www.w3.org/2000/svg" height="24" viewBox="0 -960 960 960" width="24"><path d="M380.692-337.692 480-397.923l99.308 60.231-26.385-113 87.846-75.385-115.461-10.231-45.308-106-45.308 106-115.461 10.231 87.846 75.385-26.385 113ZM480-83.384 362.923-200H200v-162.923L83.384-480 200-597.077V-760h162.923L480-876.616 597.077-760H760v162.923L876.616-480 760-362.923V-200H597.077L480-83.384ZM480-140l100-100h140v-140l100-100-100-100v-140H580L480-820 380-720H240v140L140-480l100 100v140h140l100 100Zm0-340Z"/></svg>